<svg width="24" height="24" viewBox="0 0 24 24" fill="none" xmlns="http://www.w3.org/2000/svg">
<path d="M13.9805 3.12958C14.5004 2.79015 15.1904 3.16017 15.1904 3.77997V20.2995C15.1904 20.9194 14.5004 21.2896 13.9805 20.9499L7.44043 16.6804C7.03045 16.4104 6.56005 16.2702 6.08008 16.2702H2.75977C2.34003 16.2701 2.00025 15.9301 2 15.5104V8.57001C2 8.15009 2.33987 7.81037 2.75977 7.81024H6.08008C6.56005 7.81023 7.04045 7.67007 7.44043 7.40009L13.9805 3.12958ZM19.0703 7.08954C19.3503 6.80999 19.7897 6.8203 20.0596 7.11005C21.1996 8.34004 21.9102 10.0699 21.9102 11.9899C21.9102 13.9099 21.1996 15.6298 20.0596 16.8698C19.7897 17.1596 19.3503 17.1699 19.0703 16.8903C18.7903 16.6103 18.7698 16.1395 19.0498 15.8395C19.9397 14.8795 20.5 13.5098 20.5 11.9899C20.5 10.47 19.9397 9.11031 19.0498 8.14032C18.7798 7.85032 18.7903 7.36954 19.0703 7.08954ZM16.8242 8.82587C17.1543 8.52039 17.6705 8.56159 17.9395 8.91962C18.6095 9.81962 19 10.8602 19 11.9802C19 13.1 18.62 14.1399 17.9502 15.0397C17.6802 15.3997 17.1501 15.4496 16.8301 15.1296C16.5502 14.8596 16.52 14.43 16.75 14.11C17.2199 13.4702 17.4901 12.7502 17.4902 11.9704C17.4902 11.1904 17.22 10.4698 16.75 9.82977C16.5217 9.522 16.5498 9.08653 16.8242 8.82587ZM16.8301 8.82001L16.8203 8.82977V8.82001H16.8301Z" fill="#256EF4"/>
</svg>
